<svg class="discord-svg" width="47" height="37" viewBox="0 0 47 37" fill="none" xmlns="http://www.w3.org/2000/svg"><path d="M46.8812 27.0605L41.1175 4.32805C40.9658 3.73625 40.6448 3.20153 40.1938 2.7894C39.7429 2.37727 39.1815 2.10563 38.5784 2.00774L31.5355 0.851487C30.759 0.726608 29.9639 0.894969 29.3048 1.32383C28.6456 1.75268 28.1695 2.41138 27.9691 3.1718L27.928 3.33782C27.9015 3.44329 27.8972 3.55315 27.9156 3.66035C27.9339 3.76756 27.9745 3.86976 28.0346 3.9604C28.0947 4.05104 28.1731 4.12812 28.2647 4.18672C28.3564 4.24533 28.4592 4.28415 28.5667 4.30071C30.1828 4.53789 31.7772 4.90496 33.3343 5.39836C33.7236 5.51582 34.0536 5.77694 34.2574 6.12876C34.4613 6.48058 34.5237 6.89676 34.4319 7.29289C34.3792 7.49932 34.2849 7.69279 34.1546 7.86141C34.0244 8.03002 33.8611 8.17022 33.6747 8.2734C33.4883 8.37657 33.2827 8.44053 33.0707 8.46135C32.8587 8.48217 32.6446 8.4594 32.4417 8.39446C26.664 6.62255 20.4889 6.61575 14.7073 8.37492C14.3161 8.50648 13.8892 8.48228 13.5153 8.30733C13.1414 8.13239 12.8492 7.82016 12.6995 7.43547C12.6284 7.23808 12.5977 7.02837 12.6093 6.81886C12.621 6.60936 12.6747 6.40434 12.7673 6.21605C12.8599 6.02775 12.9895 5.86004 13.1483 5.72291C13.3071 5.58578 13.4919 5.48205 13.6917 5.41789C15.2683 4.91572 16.8829 4.5421 18.5198 4.30071C18.6273 4.28415 18.7302 4.24533 18.8218 4.18672C18.9135 4.12812 18.9918 4.05104 19.052 3.9604C19.1121 3.86976 19.1526 3.76756 19.171 3.66035C19.1893 3.55315 19.1851 3.44329 19.1585 3.33782L19.1175 3.1718C18.917 2.41073 18.4402 1.75161 17.7801 1.32299C17.1201 0.894369 16.324 0.726971 15.5472 0.85344L8.50031 2.00969C7.89752 2.10744 7.33631 2.37879 6.88535 2.79055C6.43439 3.20231 6.11326 3.73661 5.96125 4.32805L0.197577 27.0605C0.0168589 27.775 0.0955106 28.5305 0.419537 29.1925C0.743563 29.8545 1.29195 30.3801 1.96711 30.6757L15.053 36.4784C15.4465 36.6534 15.8716 36.746 16.3022 36.7506C16.7328 36.7552 17.1598 36.6717 17.5569 36.5053C17.954 36.3388 18.3129 36.0929 18.6115 35.7826C18.9101 35.4724 19.1421 35.1043 19.2933 34.7011L19.9749 32.8554C20.0155 32.7448 20.0306 32.6265 20.0191 32.5093C20.0075 32.3921 19.9696 32.279 19.9082 32.1785C19.8468 32.078 19.7634 31.9927 19.6644 31.929C19.5653 31.8653 19.4532 31.8247 19.3362 31.8105C17.4389 31.5807 15.5669 31.1753 13.7445 30.5995C13.3568 30.4817 13.0282 30.2213 12.8249 29.8709C12.6215 29.5204 12.5586 29.1059 12.6487 28.7109C12.701 28.5039 12.7951 28.3098 12.9253 28.1405C13.0555 27.9713 13.2189 27.8306 13.4056 27.727C13.5923 27.6234 13.7982 27.5592 14.0107 27.5383C14.2231 27.5173 14.4376 27.5402 14.6409 27.6054C20.4403 29.3814 26.6384 29.3814 32.4378 27.6054C32.6409 27.5405 32.855 27.5178 33.0672 27.5387C33.2793 27.5597 33.4849 27.6238 33.6713 27.7272C33.8578 27.8305 34.0211 27.971 34.1512 28.1398C34.2813 28.3086 34.3756 28.5023 34.428 28.7089C34.5192 29.1042 34.4568 29.5195 34.2533 29.8705C34.0499 30.2215 33.7207 30.4821 33.3323 30.5995C31.5106 31.1755 29.6393 31.5809 27.7425 31.8105C27.6256 31.8247 27.5134 31.8653 27.4144 31.929C27.3153 31.9927 27.232 32.078 27.1706 32.1785C27.1091 32.279 27.0712 32.3921 27.0597 32.5093C27.0481 32.6265 27.0632 32.7448 27.1038 32.8554L27.7855 34.7011C27.9368 35.1041 28.169 35.472 28.4676 35.7821C28.7663 36.0922 29.1251 36.338 29.5222 36.5044C29.9193 36.6709 30.3461 36.7544 30.7766 36.7499C31.2071 36.7455 31.6322 36.6531 32.0257 36.4784L45.1116 30.6757C45.7868 30.3801 46.3352 29.8545 46.6592 29.1925C46.9832 28.5305 47.0619 27.775 46.8812 27.0605ZM16.5081 22.6874C16.0446 22.6874 15.5914 22.55 15.206 22.2924C14.8206 22.0349 14.5202 21.6689 14.3428 21.2406C14.1654 20.8123 14.119 20.3411 14.2094 19.8864C14.2998 19.4318 14.5231 19.0142 14.8508 18.6864C15.1786 18.3586 15.5962 18.1354 16.0509 18.045C16.5055 17.9545 16.9768 18.0009 17.405 18.1783C17.8333 18.3557 18.1993 18.6561 18.4569 19.0416C18.7144 19.427 18.8519 19.8801 18.8519 20.3437C18.8519 20.9653 18.6049 21.5614 18.1654 22.001C17.7259 22.4405 17.1297 22.6874 16.5081 22.6874ZM30.5706 22.6874C30.1071 22.6874 29.6539 22.55 29.2685 22.2924C28.8831 22.0349 28.5827 21.6689 28.4053 21.2406C28.2279 20.8123 28.1815 20.3411 28.2719 19.8864C28.3623 19.4318 28.5856 19.0142 28.9133 18.6864C29.2411 18.3586 29.6587 18.1354 30.1134 18.045C30.568 17.9545 31.0393 18.0009 31.4675 18.1783C31.8958 18.3557 32.2618 18.6561 32.5194 19.0416C32.7769 19.427 32.9144 19.8801 32.9144 20.3437C32.9144 20.9653 32.6674 21.5614 32.2279 22.001C31.7884 22.4405 31.1922 22.6874 30.5706 22.6874Z" fill="white"></path></svg>