<?xml version="1.0" encoding="utf-8"?>
<!-- Generator: Adobe Illustrator 26.1.0, SVG Export Plug-In . SVG Version: 6.00 Build 0)  -->
<svg version="1.1" id="Layer_1" xmlns="http://www.w3.org/2000/svg" xmlns:xlink="http://www.w3.org/1999/xlink" x="0px" y="0px"
	 viewBox="0 0 49 48" style="enable-background:new 0 0 49 48;" xml:space="preserve">
<style type="text/css">
	.st0{fill-rule:evenodd;clip-rule:evenodd;fill:#FFFFFF;}
</style>
<path class="st0" d="M24.4,0C10.9,0,0,11,0,24.6C0,35.5,7,44.7,16.7,48c1.2,0.2,1.7-0.5,1.7-1.2c0-0.6,0-2.5,0-4.6
	c-6.8,1.5-8.2-2.9-8.2-2.9c-1.1-2.9-2.7-3.6-2.7-3.6c-2.2-1.5,0.2-1.5,0.2-1.5c2.5,0.2,3.8,2.5,3.8,2.5c2.2,3.7,5.7,2.7,7.1,2
	c0.2-1.6,0.8-2.7,1.5-3.3c-5.4-0.6-11.1-2.7-11.1-12.1c0-2.7,1-4.9,2.5-6.6c-0.2-0.6-1.1-3.1,0.2-6.5c0,0,2.1-0.7,6.7,2.5
	c2-0.5,4-0.8,6.1-0.8c2.1,0,4.2,0.3,6.1,0.8c4.7-3.2,6.7-2.5,6.7-2.5c1.3,3.4,0.5,5.9,0.2,6.5c1.6,1.7,2.5,3.9,2.5,6.6
	c0,9.4-5.7,11.5-11.2,12.1c0.9,0.8,1.7,2.2,1.7,4.6c0,3.3,0,5.9,0,6.8c0,0.7,0.4,1.4,1.7,1.2c9.7-3.3,16.7-12.5,16.7-23.3
	C48.9,11,37.9,0,24.4,0z"/>
</svg>
