<?xml version="1.0" encoding="utf-8"?>
<!-- Generator: Adobe Illustrator 26.1.0, SVG Export Plug-In . SVG Version: 6.00 Build 0)  -->
<svg version="1.1" id="Layer_1" xmlns="http://www.w3.org/2000/svg" xmlns:xlink="http://www.w3.org/1999/xlink" x="0px" y="0px"
	 viewBox="0 0 140 55" style="enable-background:new 0 0 140 55;" xml:space="preserve">
<style type="text/css">
	.st0{fill:#FFFFFF;}
	.st1{enable-background:new    ;}
</style>
<polygon class="st0" points="0,0 50,0 50,50 28.1,50 28.1,25 42.2,25 42.2,7.8 7.8,7.8 7.8,25 21.9,25 21.9,50 0,50 "/>
<g class="st1">
	<path class="st0" d="M69.4,17.1h-4.1v11.4h-1.7V17.1h-4.1v-1.4h9.9V17.1z"/>
	<path class="st0" d="M81.1,28.5h-1.7v-5.9H73v5.9h-1.7V15.8H73v5.5h6.5v-5.5h1.7V28.5z"/>
	<path class="st0" d="M93.1,15.8v8.7c0,1.2-0.4,2.2-1.1,3s-1.8,1.2-3.1,1.3l-0.4,0c-1.4,0-2.5-0.4-3.3-1.1s-1.3-1.8-1.3-3.1v-8.7
		h1.7v8.7c0,0.9,0.3,1.6,0.8,2.2s1.2,0.8,2.2,0.8c1,0,1.7-0.3,2.2-0.8s0.8-1.2,0.8-2.2v-8.7H93.1z"/>
	<path class="st0" d="M105.6,28.5h-1.7l-6.4-9.9v9.9h-1.7V15.8h1.7l6.5,9.9v-9.9h1.7V28.5z"/>
	<path class="st0" d="M108.6,28.5V15.8h3.6c1.1,0,2.1,0.2,3,0.7s1.5,1.2,2,2.1s0.7,2,0.7,3.1v0.8c0,1.2-0.2,2.3-0.7,3.2
		s-1.1,1.6-2,2.1s-1.9,0.7-3,0.7H108.6z M110.3,17.1v10h1.8c1.3,0,2.3-0.4,3-1.2s1.1-2,1.1-3.5v-0.7c0-1.5-0.3-2.6-1-3.4
		c-0.7-0.8-1.7-1.2-2.9-1.2H110.3z"/>
	<path class="st0" d="M127.6,22.6h-5.5v4.5h6.4v1.4h-8.1V15.8h8v1.4h-6.4v4.1h5.5V22.6z"/>
	<path class="st0" d="M135.3,23.4h-3v5.2h-1.7V15.8h4.2c1.4,0,2.5,0.3,3.3,1s1.2,1.6,1.2,2.9c0,0.8-0.2,1.5-0.6,2.1s-1,1-1.8,1.3
		l3,5.4v0.1h-1.8L135.3,23.4z M132.3,22h2.6c0.8,0,1.5-0.2,2-0.7s0.7-1,0.7-1.7c0-0.8-0.2-1.4-0.7-1.8s-1.2-0.6-2-0.6h-2.6V22z"/>
</g>
<g class="st1">
	<path class="st0" d="M67.8,44.2h-5.5v4.5h6.4v1.4h-8.1V37.4h8v1.4h-6.4v4.1h5.5V44.2z"/>
	<path class="st0" d="M80.6,50.2h-1.7l-6.4-9.9v9.9h-1.7V37.4h1.7l6.5,9.9v-9.9h1.7V50.2z"/>
	<path class="st0" d="M93,48.5c-0.4,0.6-1,1.1-1.8,1.4c-0.8,0.3-1.7,0.5-2.7,0.5c-1,0-2-0.2-2.8-0.7c-0.8-0.5-1.4-1.2-1.9-2.1
		s-0.7-1.9-0.7-3.1v-1.1c0-1.9,0.4-3.4,1.3-4.5s2.2-1.6,3.8-1.6c1.3,0,2.4,0.3,3.2,1c0.8,0.7,1.3,1.7,1.5,2.9h-1.7
		c-0.3-1.7-1.3-2.5-3-2.5c-1.1,0-2,0.4-2.6,1.2c-0.6,0.8-0.9,1.9-0.9,3.5v1c0,1.4,0.3,2.6,1,3.4c0.7,0.8,1.5,1.3,2.7,1.3
		c0.6,0,1.2-0.1,1.7-0.2c0.5-0.1,0.9-0.4,1.2-0.7v-2.9h-3v-1.4H93V48.5z"/>
	<path class="st0" d="M97.7,50.2H96V37.4h1.7V50.2z"/>
	<path class="st0" d="M110.6,50.2h-1.7l-6.4-9.9v9.9h-1.7V37.4h1.7l6.5,9.9v-9.9h1.7V50.2z"/>
	<path class="st0" d="M120.8,44.2h-5.5v4.5h6.4v1.4h-8.1V37.4h8v1.4h-6.4v4.1h5.5V44.2z"/>
</g>
</svg>
