<?xml version="1.0" encoding="utf-8"?>
<!-- Generator: Adobe Illustrator 26.1.0, SVG Export Plug-In . SVG Version: 6.00 Build 0)  -->
<svg version="1.1" id="Layer_1" xmlns="http://www.w3.org/2000/svg" xmlns:xlink="http://www.w3.org/1999/xlink" x="0px" y="0px"
	 viewBox="0 0 140 55" style="enable-background:new 0 0 140 55;" xml:space="preserve">
<style type="text/css">
	.st0{fill:#FFFFFF;}
	.st1{enable-background:new    ;}
</style>
<g id="g10" transform="matrix(1.25,0,0,-1.25,0,320)">
	<g id="g14" transform="translate(0,256)">
		<path id="path16" class="st0" d="M0-2.5v-35C0-38.9,1.1-40,2.5-40H15c1.4,0,2.5,1.1,2.5,2.5v15c0,1.4-1.1,2.5-2.5,2.5H8.8
			c-1.4,0-2.5,1.1-2.5,2.5v8.8c0,1.4,1.1,2.5,2.5,2.5h22.5c1.4,0,2.5-1.1,2.5-2.5v-8.8c0-1.4-1.1-2.5-2.5-2.5H25
			c-1.4,0-2.5-1.1-2.5-2.5v-15c0-1.4,1.1-2.5,2.5-2.5h12.5c1.4,0,2.5,1.1,2.5,2.5v35C40-1.1,38.9,0,37.5,0h-35C1.1,0,0-1.1,0-2.5z"
			/>
	</g>
</g>
<g class="st1">
	<path class="st0" d="M67.1,17.7h-3.9v10.7h-2.6V17.7h-3.9v-2.1h10.4V17.7z"/>
	<path class="st0" d="M79,28.4h-2.6v-5.5h-5.1v5.5h-2.6V15.6h2.6v5.2h5.1v-5.2H79V28.4z"/>
	<path class="st0" d="M91,15.6V24c0,1.4-0.4,2.5-1.3,3.3s-2.1,1.2-3.6,1.2c-1.5,0-2.7-0.4-3.6-1.2s-1.3-1.9-1.3-3.3v-8.5h2.6V24
		c0,0.8,0.2,1.4,0.6,1.8s1,0.6,1.7,0.6c1.5,0,2.2-0.8,2.3-2.3v-8.5H91z"/>
	<path class="st0" d="M103.6,28.4H101L95.8,20v8.4h-2.6V15.6h2.6L101,24v-8.4h2.6V28.4z"/>
	<path class="st0" d="M105.9,28.4V15.6h3.9c1.1,0,2.1,0.3,3,0.8c0.9,0.5,1.6,1.2,2.1,2.2c0.5,0.9,0.7,2,0.7,3.2v0.6
		c0,1.2-0.2,2.2-0.7,3.2s-1.2,1.6-2.1,2.2s-1.9,0.8-3,0.8H105.9z M108.5,17.7v8.5h1.3c1,0,1.8-0.3,2.4-1s0.8-1.6,0.8-2.9v-0.7
		c0-1.3-0.3-2.3-0.8-3s-1.3-1-2.4-1H108.5z"/>
	<path class="st0" d="M125.3,22.9h-5.1v3.4h5.9v2.1h-8.6V15.6h8.6v2.1h-5.9v3h5.1V22.9z"/>
	<path class="st0" d="M132.5,23.7h-2.1v4.7h-2.6V15.6h4.8c1.5,0,2.7,0.3,3.5,1c0.8,0.7,1.2,1.6,1.2,2.9c0,0.9-0.2,1.6-0.6,2.2
		c-0.4,0.6-1,1-1.7,1.4l2.8,5.2v0.1h-2.8L132.5,23.7z M130.4,21.6h2.1c0.7,0,1.2-0.2,1.5-0.5c0.4-0.3,0.5-0.8,0.5-1.4
		c0-0.6-0.2-1.1-0.5-1.4s-0.9-0.5-1.6-0.5h-2.1V21.6z"/>
</g>
<g class="st1">
	<path class="st0" d="M65.2,44.5h-5.1v3.4h5.9V50h-8.6V37.2H66v2.1h-5.9v3h5.1V44.5z"/>
	<path class="st0" d="M78,50h-2.6l-5.1-8.4V50h-2.6V37.2h2.6l5.1,8.4v-8.4H78V50z"/>
	<path class="st0" d="M90.4,48.4c-0.5,0.6-1.1,1-2,1.3c-0.9,0.3-1.8,0.5-2.9,0.5c-1.1,0-2.1-0.2-2.9-0.7c-0.8-0.5-1.5-1.2-1.9-2.1
		s-0.7-2-0.7-3.2v-0.9c0-1.3,0.2-2.4,0.6-3.3c0.4-0.9,1.1-1.6,1.9-2.1c0.8-0.5,1.8-0.7,2.9-0.7c1.5,0,2.7,0.4,3.6,1.1
		s1.4,1.8,1.5,3.2h-2.6c-0.1-0.7-0.4-1.3-0.8-1.6s-1-0.5-1.7-0.5c-0.9,0-1.6,0.3-2,1s-0.7,1.7-0.7,3V44c0,1.3,0.3,2.4,0.8,3
		s1.3,1,2.2,1c1,0,1.7-0.2,2.1-0.6v-2.2h-2.4v-1.9h5V48.4z"/>
	<path class="st0" d="M95.4,50h-2.6V37.2h2.6V50z"/>
	<path class="st0" d="M108.2,50h-2.6l-5.1-8.4V50h-2.6V37.2h2.6l5.1,8.4v-8.4h2.6V50z"/>
	<path class="st0" d="M118.2,44.5h-5.1v3.4h5.9V50h-8.6V37.2h8.6v2.1h-5.9v3h5.1V44.5z"/>
</g>
</svg>
